<svg xmlns="http://www.w3.org/2000/svg" width="66" height="16" xmlns:v="https://vecta.io/nano">
  <style>
    * { fill: #678; }
    @media (prefers-color-scheme: light) { * { fill: #111; } }
    @media (prefers-color-scheme: dark) { * { fill: #eee; } }
  </style>
  <path d="M7.116,10 L7.116,9.727 L6.783,9.727 C6.497,9.727 6.272,9.679 6.107,9.583 C5.942,9.487 5.831,9.375 5.774,9.247 C5.717,9.119 5.689,8.8 5.689,8.288 L5.689,8.288 L5.689,0.575 L6.435,0.575 C6.903,0.575 7.231,0.619 7.418,0.708 C7.73345876,0.853983885 8.00590885,1.07890159 8.209,1.361 C8.401,1.634 8.576,2.082 8.734,2.707 L8.734,2.707 L9,2.707 L9,-8.8817842e-16 L0,-8.8817842e-16 L0,2.706 L0.281,2.706 C0.394,1.969 0.665,1.401 1.094,1.002 C1.399,0.717 1.89,0.574 2.564,0.574 L2.564,0.574 L3.288,0.574 L3.288,8.288 C3.288,8.789 3.261,9.099 3.207,9.217 C3.133,9.384 3.032,9.502 2.904,9.571 C2.727,9.674 2.493,9.726 2.202,9.726 L2.202,9.726 L1.869,9.726 L1.869,10 L7.115,10 L7.116,10 Z M13.686,10 L13.686,9.727 L13.389,9.727 C13.138,9.727 12.938,9.679 12.791,9.583 C12.644,9.487 12.544,9.375 12.494,9.247 C12.444,9.119 12.418,8.8 12.418,8.288 L12.418,8.288 L12.418,5.192 L15.584,5.192 L15.584,8.289 C15.584,8.79 15.56,9.1 15.511,9.218 C15.445,9.385 15.355,9.503 15.24,9.572 C15.086,9.675 14.876,9.727 14.612,9.727 L14.612,9.727 L14.321,9.727 L14.321,10 L19,10 L19,9.727 L18.709,9.727 C18.458,9.727 18.257,9.679 18.108,9.583 C17.959,9.487 17.859,9.375 17.811,9.247 C17.763,9.119 17.738,8.8 17.738,8.288 L17.738,8.288 L17.738,1.711 C17.738,1.21 17.762,0.9 17.811,0.782 C17.877,0.615 17.967,0.497 18.082,0.428 C18.236,0.325 18.446,0.273 18.71,0.273 L18.71,0.273 L19,0.273 L19,-8.8817842e-16 L14.321,-8.8817842e-16 L14.321,0.273 L14.612,0.273 C14.863,0.273 15.064,0.321 15.213,0.417 C15.362,0.513 15.462,0.625 15.51,0.753 C15.558,0.881 15.583,1.2 15.583,1.712 L15.583,1.712 L15.583,4.544 L12.417,4.544 L12.417,1.711 C12.417,1.21 12.441,0.9 12.49,0.782 C12.556,0.615 12.646,0.497 12.761,0.428 C12.92,0.325 13.129,0.273 13.389,0.273 L13.389,0.273 L13.686,0.273 L13.686,-8.8817842e-16 L9,-8.8817842e-16 L9,0.273 L9.297,0.273 C9.548,0.273 9.748,0.321 9.895,0.417 C10.042,0.513 10.141,0.625 10.189,0.753 C10.237,0.881 10.262,1.2 10.262,1.712 L10.262,1.712 L10.262,8.29 C10.262,8.791 10.238,9.101 10.189,9.219 C10.127,9.386 10.039,9.504 9.925,9.573 C9.766,9.676 9.557,9.728 9.297,9.728 L9.297,9.728 L9,9.728 L9,10 L13.686,10 Z M27.555,10 L28,6.822 L27.73,6.822 C27.487,7.707 27.086,8.366 26.529,8.798 C25.972,9.23 25.231,9.447 24.306,9.447 L24.306,9.447 L23.715,9.447 C23.433,9.447 23.228,9.408 23.102,9.329 C22.976,9.25 22.889,9.15 22.843,9.027 C22.797,8.904 22.774,8.567 22.774,8.017 L22.774,8.017 L22.774,5.199 C23.246,5.199 23.606,5.262 23.854,5.387 C24.102,5.512 24.32,5.757 24.507,6.121 C24.694,6.485 24.817,6.952 24.876,7.522 L24.876,7.522 L25.153,7.522 L25.153,2.286 L24.876,2.286 C24.798,3.063 24.618,3.65 24.336,4.049 C24.054,4.448 23.599,4.646 22.971,4.646 L22.971,4.646 L22.774,4.646 L22.774,0.575 L23.796,0.575 C24.545,0.575 25.056,0.619 25.329,0.708 C25.796,0.855 26.157,1.087 26.413,1.401 C26.669,1.715 26.867,2.234 27.008,2.957 L27.008,2.957 L27.285,2.957 L27.285,-8.8817842e-16 L19,-8.8817842e-16 L19,0.273 L19.328,0.273 C19.649,0.273 19.902,0.342 20.087,0.479 C20.218,0.572 20.308,0.705 20.357,0.877 C20.381,0.98 20.393,1.258 20.393,1.71 L20.393,1.71 L20.393,8.288 C20.393,8.789 20.366,9.099 20.313,9.217 C20.2603706,9.36569275 20.1569684,9.49105016 20.021,9.571 C19.846,9.674 19.615,9.726 19.328,9.726 L19.328,9.726 L19,9.726 L19,10 L27.555,10 Z M40.555,10 L41,6.822 L40.73,6.822 C40.487,7.707 40.086,8.366 39.529,8.798 C38.972,9.23 38.231,9.447 37.306,9.447 L37.306,9.447 L36.715,9.447 C36.433,9.447 36.228,9.408 36.102,9.329 C35.976,9.25 35.889,9.15 35.843,9.027 C35.797,8.904 35.774,8.567 35.774,8.017 L35.774,8.017 L35.774,5.199 C36.246,5.199 36.606,5.262 36.854,5.387 C37.102,5.512 37.32,5.757 37.507,6.121 C37.694,6.485 37.817,6.952 37.876,7.522 L37.876,7.522 L38.153,7.522 L38.153,2.286 L37.876,2.286 C37.798,3.063 37.618,3.65 37.336,4.049 C37.054,4.448 36.599,4.646 35.971,4.646 L35.971,4.646 L35.774,4.646 L35.774,0.575 L36.796,0.575 C37.545,0.575 38.056,0.619 38.329,0.708 C38.796,0.855 39.157,1.087 39.413,1.401 C39.669,1.715 39.867,2.234 40.008,2.957 L40.008,2.957 L40.285,2.957 L40.285,-8.8817842e-16 L32,-8.8817842e-16 L32,0.273 L32.328,0.273 C32.649,0.273 32.902,0.342 33.087,0.479 C33.218,0.572 33.308,0.705 33.357,0.877 C33.381,0.98 33.393,1.258 33.393,1.71 L33.393,8.288 C33.393,8.789 33.366,9.099 33.313,9.217 C33.2603706,9.36569275 33.1569684,9.49105016 33.021,9.571 C32.846,9.674 32.615,9.726 32.328,9.726 L32.328,9.726 L32,9.726 L32,10 L40.555,10 Z M49.731,10 L49.731,1.86 C49.731,1.399 49.77,1.073 49.849,0.883 C49.928,0.693 50.037,0.556 50.177,0.472 C50.317,0.388 50.592,0.319 51.001,0.267 L51.001,0.267 L51.001,-8.8817842e-16 L47.806,-8.8817842e-16 L47.806,0.267 C48.343,0.257 48.726,0.392 48.954,0.671 C49.12,0.878 49.204,1.274 49.204,1.861 L49.204,1.861 L49.204,6.064 L44.431,-8.8817842e-16 L41,-8.8817842e-16 L41,0.267 C41.295,0.277 41.521,0.322 41.678,0.404 C41.835,0.486 42.016,0.656 42.22,0.916 L42.22,0.916 L42.427,1.176 L42.427,8.076 C42.427,8.595 42.322,8.963 42.113,9.179 C41.904,9.395 41.533,9.506 41,9.511 L41,9.511 L41,9.778 L44.431,9.778 L44.431,9.511 L44.203,9.511 C43.875,9.511 43.584,9.412 43.329,9.215 C43.074,9.018 42.947,8.638 42.947,8.076 L42.947,8.076 L42.947,1.86 L49.488,10 L49.731,10 Z M55.444,10 C56.083,10 56.552,9.971 56.85,9.912 C57.523,9.784 58.093,9.603 58.559,9.37 C59.0233873,9.13792328 59.4415609,8.823107 59.793,8.441 C60.149,8.055 60.44,7.566 60.664,6.973 C60.888,6.38 61,5.733 61,5.029 C61,4.011 60.772,3.099 60.316,2.293 C59.86,1.487 59.19,0.884 58.306,0.486 C57.885,0.297 57.385,0.163 56.806,0.084 C56.505,0.043 56.344,0.011 56,-0.001 C55.871,-0.005 55.135,-0.001 55,-0.001 L51,-0.001 L51,0.272 L51.329,0.272 C51.607,0.272 51.828,0.32 51.992,0.416 C52.156,0.512 52.264,0.624 52.318,0.752 C52.372,0.88 52.399,1.199 52.399,1.711 L52.399,8.289 C52.399,8.805 52.377,9.115 52.333,9.218 C52.26,9.375 52.146,9.499 51.993,9.59 C51.84,9.681 51.618,9.726 51.33,9.726 L51,9.726 L51,10 L55.444,10 Z M55.695,9 C55.486,9 55.326,8.963 55.215,8.888 C55.137,8.838 55.082,8.766 55.049,8.671 C55.016,8.576 55,8.32 55,7.902 L55,0.33 L55.577,0.348 C55.968,0.379 56.265,0.447 56.469,0.554 C56.887,0.773 57.229,1.186 57.496,1.794 C57.832,2.571 58,3.279 58,4.578 C58,6.191 57.754,7.381 57.262,8.148 C56.901,8.716 56.379,8.999 55.694,8.999 L55.695,9 Z" />
  <circle cx="63" cy="9" r="1"></circle>
</svg>
